<?xml version="1.0" encoding="utf-8"?>
<!-- Generator: Adobe Illustrator 26.0.3, SVG Export Plug-In . SVG Version: 6.00 Build 0)  -->
<svg version="1.0" id="Layer_1" xmlns="http://www.w3.org/2000/svg" xmlns:xlink="http://www.w3.org/1999/xlink" x="0px" y="0px"
	 viewBox="0 0 1332.6 969.9" style="enable-background:new 0 0 1332.6 969.9;" xml:space="preserve">
<style type="text/css">
	.st0{fill-rule:evenodd;clip-rule:evenodd;fill:#2B357C;}
	.st1{fill-rule:evenodd;clip-rule:evenodd;fill:#E4AB31;}
	.st2{fill:none;}
</style>
<path class="st0" d="M301.9,830.3h728.8V688.5H921.8V352.2c0.1-78.5-70.5-168.3-255.5-212.6c-185,44.3-255.6,134.1-255.5,212.6
	v336.3H301.9V830.3z"/>
<path class="st1" d="M607.1,277.4l-20.1-44.7l-20.1,44.7l-0.8,31.9h-7.5v9.4c0,3.5,3.6,7,7,8.7l-1,45.5h-11.3v11.7
	c0,4.7,6.2,9.2,10.8,11.2l-1.6,66h-17.8v19.8h17.3l-3.7,152.5v55.4h267.2v-55.4h-9.3c0.2-3,0.2-6,0.2-9
	c0-66.8-47.1-122.2-90.2-132.7L712,453.9l-14.2,38.6c-33.3,8-68.9,42.8-83.4,88.9l-2.4-99.7h17.3V462h-17.8l-1.6-66
	c4.6-2,10.8-6.5,10.8-11.2V373h-11.3l-1.1-45.4c3.5-1.7,7.1-5.2,7.1-8.8v-9.4h-7.6L607.1,277.4z M472.6,780.4
	c-0.7,2.4-2.4,5.4-4.2,8.5c-1.6,2.8-3.4,5.6-5.4,8.2c-3.7,4.9-34.9,8.9-29.5,4.4c0.7-0.5,1.5-1,2.3-1.5c8.9-3.9,17.5-6.8,25-12.3
	c0.4,0.2,4.2-2.9,1.4-5.7c-4.1,0.3-4.5,0.5-6-0.1c-1.5-0.5-2.8-1.4-3.8-2.6c-0.7-0.9-1.1-2.1-1.1-3.2c-0.2-2.4,2.4-4.3,3.6-8.5
	c1.6-6.1,3-6.8,6.5-7.6c1.7-0.3,3.4-0.1,5,0.6c2.8,1.1,4.9,2.2,6.3,6.3c0.7,2,1.1,4.2,1.2,6.4C473.9,775.7,473.5,778.1,472.6,780.4
	 M405.9,783.4c-1,2.1-2.1,4.2-3.3,6.2c-1.6,2.8-3.4,5.6-5.4,8.2c-3.7,4.9-34.8,8.9-29.4,4.5c0.7-0.6,1.4-1.1,2.2-1.5
	c8.8-3.9,17.5-6.8,25-12.3c0.3,0.3,4.2-2.9,1.5-5.7c-4.1,0.3-4.6,0.5-6-0.1c-1.5-0.5-2.8-1.4-3.9-2.6c-0.7-1-1.1-2.1-1.2-3.3
	c-0.1-2.3,2.5-4.3,3.6-8.4c1.6-6,3-6.8,6.5-7.7c1.7-0.3,3.4-0.1,5,0.6c2.8,1.1,4.9,2.2,6.3,6.3c0.5,1.5,0.8,2.9,1,4.5
	c5.6,1,10.5-1.7,14.6-6.9c3-3.8,4.5-2.2,6.8-1.1c13.5,6.7,5-66.6,4.4-97.6l0,0V345.8l0.2-6.2l0.5-6l0.9-6l1.2-6.1l1.6-6.1l2-6.2
	l2.4-6.2l2.8-6.2l3.3-6.2l3.7-6.3l4.2-6.3l4.6-6.3l5.1-6.3l5.6-6.3l6.1-6.3l6.6-6.2l7.2-6.2l7.8-6.1l8.3-6.1l8.9-6l9.5-5.9l10-5.8
	l10.7-5.7l11.3-5.5l11.9-5.4l12.5-5.2l13.2-5.1l13.8-4.9l14.5-4.7l15.1-4.5l15.8-4.2l11.2-2.7l11.2,2.7l15.8,4.2l15.1,4.5l14.5,4.7
	l13.8,4.9l13.2,5.1l12.5,5.2l11.9,5.4l11.3,5.5l10.7,5.7l10.1,5.8l9.5,5.9l8.9,6l8.3,6.1l7.8,6.1l7.2,6.2l6.7,6.3l6.2,6.3l5.6,6.3
	l5.1,6.3l4.6,6.3l4.2,6.3l3.7,6.3l3.2,6.3l2.9,6.2l2.4,6.2l2,6.2l1.6,6.1l1.2,6.1l0.9,6l0.5,6l0.2,6.2v320.6
	c5.6,38.6-9.9,110.8,14.6,116.6s53-11.3,80.9-23.3c-5.8,20.9-13,15.1-16.9,41.1c-4.1-3-5.2-11.5-3.1-20c-54.9,27.6-71.3,17.7-82.7,0
	c-7.5,24.5-46.8,28.2-55.8,13.9c8.7-0.6,15.4-0.5,21.7-1.7c5.2-1.4,8.2-5,7.8-11.4c-0.8-18-4-35-7.7-51.9c3.5-7.1,6.3-11.3,8.7-14
	c4.9,16.3,7.1,38.8,9.2,61.7c2.2,2.2,4.5,2.1,7.2-2.8c2.3-36.6,1.1-72,0-108.6l0,0v-15.4l0,0V346l-0.2-5.6l-0.4-5.1l-0.7-5.1
	l-1.1-5.2l-1.4-5.2l-1.7-5.4l-2.1-5.4l-2.5-5.5l-2.9-5.5l-3.3-5.6l-3.7-5.7l-4.2-5.7l-4.7-5.7l-5.1-5.8l-5.7-5.8l-6.2-5.8l-6.7-5.8
	l-7.3-5.8l-7.8-5.7l-8.4-5.6l-9-5.6l-9.5-5.6l-10.2-5.4l-10.8-5.3l-11.4-5.2l-12.1-5l-12.7-4.9l-13.4-4.8l-14.1-4.5l-14.8-4.4
	l-15.4-4.2l-7.1-1.7l-7,1.7l-15.5,4.1l-14.7,4.4l-14.1,4.5l-13.4,4.7l-12.8,4.9l-12.1,5l-11.5,5.2l-10.8,5.3l-10.2,5.4l-9.6,5.5
	l-9,5.6l-8.4,5.6l-7.8,5.7l-7.3,5.8l-6.7,5.8l-6.1,5.8l-5.7,5.8l-5.1,5.8l-4.6,5.7l-4.2,5.7l-3.8,5.7l-3.3,5.6l-2.9,5.5l-2.5,5.5
	l-2.1,5.4l-1.7,5.4l-1.4,5.3l-1.1,5.2l-0.7,5.1l-0.4,5.1l-0.2,5.6v304.6h0.1v15.8l0,0c-0.5,9.3,2.5,95-7.5,101.9
	c-7.6,10.3-12.4,0.5-16.4,3.5C417,781.4,412.5,773.4,405.9,783.4 M695.8,724.5c-4.3,30.6-61.1,56.9-94.4,33.5
	c-5.8,0.6-9.7,5.3-7.8,9.3c20.7,5.5,17.8,15.8,8,28.1c-15.8,22.3-48.5,22.7-57.1,1.9c-2.8-17.8-0.2-28.8,18.2-43.2
	c3.7-2.4,5.1-2.3,2.3,1.5c-6.7,7.7-11.5,15.3-13,25.3c-1.9,12.5,8.2,20.7,25.3,16.5c4.7-1.2,8.9-3.8,12.1-7.4
	c6.6-7,0.9-8.8-7.8-11.4c-3.6-1.1-3.3-5.9-2.1-12.7c3.4-18.2,25.9-24.6,35.9-15.6C626.9,764,672.9,757.4,695.8,724.5 M844.5,786.7
	c5.4-5.5,3.5-18.3-3.5-23.1s-14.1-1.1-16.2,10.5c-3.3,5.8-9.9,5.7-13.1,2.5s-3.2-5.2-5.6-8.3c-5.8,13-13.3,11.8-15.4,4.8
	s-1.8-12.9-3.9-19.6c-6.5,5.9-13.5,10-18.7,18.8c-5.1,8.8,2,11.4,14.6,11.6c8.9,8.5,17.1,9,23.7-1.2c5.4,7.8,12,10.6,21.1,1.4
	C832.9,789.2,837.8,792.2,844.5,786.7 M781.4,808.8c1.4-2.3,3.4-4.2,5.7-5.6c1.6,1,3.1,2.3,4.3,3.8c1.4-2,3.3-3.7,5.4-4.9
	c2.3,1.4,4.2,3.3,5.7,5.5c-1.6,2.1-3.6,4-5.7,5.6c-1.7-1-3.2-2.3-4.5-3.9c-1.5,1.9-3.2,3.5-5.2,4.9
	C784.7,813,782.8,811.1,781.4,808.8 M834.2,770.9c1.4-0.6,3.8,1,5.2,3.7s1.5,5.3,0,6s-3.8-1.1-5.2-3.8S832.7,771.5,834.2,770.9
	 M779.4,769.4c2.1-0.4,3.4-0.3,3.4,2c-0.1,2.3-1.2,2.6-3.2,2.2c-2-0.4-3.8-1.4-3.8-2.2S777.4,769.8,779.4,769.4 M932.4,736.5
	c14-8.1,29.1-3.3,14.2,4.8c-2.6,1.4-3.1,3,0.3,2.3c6.3-1,13.3-4,16.4-10.6s-3.5-9.1-6.7-9.5c-6-0.6-13.4,0.8-18.6,4.1
	c-2.9,1.8-5.6,4.1-7.8,6.7c-0.4,0.4-0.6,1-0.4,1.5C929.9,736.7,930.7,736.9,932.4,736.5 M500.6,804.5c-0.6,0.9-1.2,1.8-1.8,2.7
	c-0.5,1-0.7,1.1-0.8,1.9c0,1,0.3,1.5,0.8,1.7c0.5,0.2,0.6,0.3,1.3-0.7c0.4-0.5,0.8-0.7,1.2-0.4c0.4,0.2,0.6,0.6,0.6,1
	c0,0.4,0,0.8,0,1.1c-0.2,2-1.6,3.6-3.5,4.2c-0.6,0.2-1.3,0-1.8-0.4c-0.8-0.6-1.3-1.5-1.3-2.4c-0.1-1.5,0.1-2.9,0.6-4.3
	c0.3-0.9,0.8-1.7,1.3-2.4c0.6-1.1,1.4-2,2.3-2.8c0.1-0.1,0.4-0.1,0.5-0.1C500.6,803.6,500.7,804,500.6,804.5 M412.1,736.3l-0.4,4.8
	c-1.4-0.8-2.7-1.6-3.9-2.6c-1.4,1.8-3,3.5-4.7,5c-1.4,1.2-3.2,2-5.1,2.2c-1-0.1-2-0.4-3-0.7c1.8-0.9,3.6-2,5.2-3.1
	c1-0.7,2.8-2.2,5.4-4.6c-1.9-1.4-2.9-2.8-3.1-4.2c0.1-1.9,0.8-3.7,1.8-5.3c0.7-1.7,2.3-2.8,4.1-3c0.9-0.1,1.8,0.3,2.5,1
	c0.6,1,0.9,2.2,0.8,3.3c-0.1,2-0.6,3.9-1.5,5.6C410.7,735.3,411.3,735.8,412.1,736.3 M408.6,731.9c0-0.7-0.3-1.4-0.7-2
	c-0.4-0.6-1-0.9-1.6-1c-0.8,0-1.1,0.4-1.1,1.2c0,0.6,0.3,1.2,0.7,1.6c0.8,0.8,1.7,1.4,2.7,2c0.1-0.3,0.1-0.6,0.1-0.9
	c0-0.3,0.1-0.5,0.1-0.8 M756.1,724.6l-0.4,4.8c-1.4-0.8-2.7-1.6-4-2.6c-1.4,1.8-3,3.5-4.7,5c-1.4,1.2-3.2,2-5.1,2.2
	c-1-0.1-2-0.4-3-0.7c2-1,3.6-2.1,5.2-3.1c0.9-0.7,2.8-2.2,5.4-4.6c-1.8-1.3-2.9-2.7-3.1-4.2c0.1-1.9,0.8-3.7,1.8-5.3
	c0.7-1.7,2.3-2.8,4-3c0.9-0.1,1.9,0.3,2.5,1c0.6,1,0.9,2.2,0.8,3.3c-0.1,2-0.6,3.9-1.5,5.7C754.7,723.7,755.4,724.2,756.1,724.6
	 M752.7,720.2c0-0.7-0.3-1.4-0.7-2c-0.4-0.7-1-1.1-1.8-1.1c-0.7,0-1.1,0.4-1.1,1.2c0,0.6,0.3,1.2,0.6,1.6c0.8,0.7,1.7,1.4,2.7,1.9
	c0.1-0.3,0.2-0.5,0.2-0.8C752.6,720.7,752.6,720.5,752.7,720.2 M596.9,717.1l0.4,0.1v0.4c0,0.1,0.1,0.3,0.1,0.4c0,4.7-0.3,7.8-1,9.1
	c0.5-0.2,1-0.5,1.4-0.8c0.7-0.5,1.5-0.8,2.3-0.8c1.7,0,2.5,1,2.5,3c0,0.8-0.8,1.8-2.2,3.4c-0.8,1-1.9,1.6-3.2,2
	c-2.3,0.5-4.7,0.8-7.1,0.8c-0.3,0-0.5-0.1-0.7-0.2c0-0.6,0.7-1.1,1.8-1.7c1-1.1,1.9-2.3,2.6-3.7c0.5-1.6,0.8-3.3,0.7-5.1
	c0-2.5,0.1-3.9,0.5-4.3L596.9,717.1z M594.3,731.9c3.5-0.4,5.2-1.3,5.2-3c-0.2-0.3-0.6-0.4-1-0.4c-1,0-1.9,0.5-2.5,1.3
	C595.5,730.4,594.9,731.1,594.3,731.9 M994.3,811.5l16-12.4l7.4,0.2l-15.9,13.1L994.3,811.5z M1017.4,719.5
	c-0.4,1.7-0.8,4.3-1.2,7.6c-0.5,4.2-0.7,10.1-0.9,17.6c0,8.7-0.1,29-0.3,32.4c-0.2,1.9-6.5,8.8-8.2,8.8c-0.4,0-0.7-0.1-1-0.3
	c-0.8-0.4-1.3-1.3-0.9-2.6c0.8-2.5,0.9-12.4,0.8-22.7c-0.1-8.3-0.8-11.9-0.5-22.2c2.6-6.7,5.8-13.1,9.6-19.1
	C1015.6,718.4,1016.8,718.5,1017.4,719.5 M401.4,800c1.4-2.3,3.4-4.2,5.7-5.5c1.7,1,3.2,2.3,4.4,3.8c1.4-2,3.2-3.8,5.3-5
	c2.2,1.5,4.1,3.4,5.7,5.6c-1.6,2.1-3.6,3.9-5.7,5.5c-1.7-1-3.2-2.3-4.5-3.8c-1.5,1.9-3.3,3.5-5.2,4.9
	C404.7,804.2,402.8,802.3,401.4,800 M406.2,809.2c1.4-2.3,3.4-4.2,5.7-5.5c2.2,1.5,4.2,3.4,5.7,5.5c-1.7,2.1-3.6,3.9-5.7,5.5
	C409.6,813.4,407.7,811.5,406.2,809.2 M479,733.2v-4.5c0.1-0.1,1.6-2.8,4.6-8.2c0.4-0.9,0.9-1.7,1.5-2.5c0.1,0,0.2,0,0.2,0.1
	c-0.3,3-0.6,11.3-1.1,24.9c-0.4,8,0,16.1,1.4,24c0.8,2.7,2.2,5.1,4,7.2l0,0c10.3,7.7,16-7.6,23.6-13.7c3.7,2.9,3.2,7.4-1.4,13.2
	c-2.1,4.7-0.3,10.7,3.3,8.8c12.8-6.6,19.4-12.6,18.7-28.3c3.5-4.2,12.3-2.3,10.8,4.1c-9.8,30-29.9,27.1-25.7,48.4
	c-4.7,2.2-8.8,2.2-12.6,0c0.6-9.3,0.1-17.4-2.3-23c-4.6,5.5-12.6,9.6-19.3,5.4c-3.4-2.3-5.3-7.4-5.6-15.5L479,733.2L479,733.2z
	 M713,728.1c1.5-2.3,3.4-4.1,5.7-5.5c2.3,1.4,4.2,3.3,5.7,5.5c-1.6,2.1-3.5,4-5.7,5.5C716.4,732.3,714.4,730.4,713,728.1
	 M525.3,809.6c1.4-2.3,3.4-4.2,5.7-5.6c2.2,1.5,4.1,3.4,5.7,5.6c-1.6,2.1-3.5,3.9-5.7,5.5C528.7,813.8,526.7,811.9,525.3,809.6
	 M666.4,812.3c1.4-2.3,3.4-4.2,5.7-5.5c1.7,1,3.2,2.4,4.4,3.9c1.4-2,3.2-3.7,5.3-5c2.2,1.5,4.1,3.3,5.6,5.5c-1.6,2.1-3.5,4-5.6,5.5
	c-1.7-1-3.3-2.3-4.5-3.8c-1.5,1.9-3.2,3.6-5.2,4.9C669.8,816.4,667.8,814.5,666.4,812.3 M614,795c-0.8,0-1.1-0.4-1.1-0.8
	s0.9-0.9,2.1-1.4c4.5-1.8,15.6-3.8,20.3-6.1c3.8-2.2,7.2-5.1,10-8.6c2.6-3.2,3.7-4,6.3-7.3c0.4-0.5,1.1-0.7,1.8-0.6
	c0.7,0.1,0.9,0.4,0.8,0.9c-0.3,1.2-0.3,1.7-3,5.9c-4.8,7.2-12.2,14.4-17,18.7C632,797.6,618.1,794.9,614,795 M330.5,794.1
	c-0.9,0.1-1.4-0.3-1.5-0.8s1-1.2,2.4-1.9c5.1-2.9,18.2-6.8,23.4-10.2c3.5-2.3,7.4-6.5,10.7-11.7c2.7-4.2,4-5.3,6.6-9.6
	c0.5-0.6,1.2-1,2-0.9c0.9,0,1.2,0.3,1.1,0.9c-0.2,1.6-0.1,2.1-2.8,7.5c-4.7,9.4-12.7,19-17.8,24.8
	C352.2,794.9,335.2,793.3,330.5,794.1 M746.9,780.5c-1.1,3-2.5,5.8-4.2,8.5c-1.6,2.8-3.4,5.6-5.4,8.2c-3.7,4.9-34.8,8.9-29.4,4.4
	c0.7-0.6,1.4-1,2.2-1.5c8.8-3.9,17.5-6.8,24.9-12.3c0.4,0.2,4.2-2.9,1.5-5.7c-4.2,0.3-4.6,0.5-6-0.1c-1.5-0.5-2.9-1.4-3.9-2.6
	c-0.7-0.9-1.1-2.1-1.1-3.2c-0.2-2.4,2.4-4.3,3.6-8.5c1.5-6.1,3-6.8,6.4-7.6c1.7-0.3,3.4-0.1,5,0.6c2.8,1.1,4.9,2.2,6.3,6.3
	c0.1,0.3,0.2,0.6,0.3,0.9c3.4,3,7.7,0.8,9.1-9.4c0.2-4.3,0.3-8.7,0.3-13c-0.1-4.8,6.3-7,11.3-8.6c-0.7,19-5.1,33.4-20.4,41.9
	C747.1,779.3,747,779.9,746.9,780.5 M732.2,809.7c1.4-2.3,3.4-4.2,5.7-5.5c1.6,1,3.1,2.3,4.3,3.9c1.4-2,3.2-3.7,5.3-5
	c2.3,1.4,4.2,3.3,5.7,5.5c-1.6,2.2-3.5,4-5.7,5.6c-1.7-1-3.2-2.3-4.5-3.8c-1.5,1.9-3.2,3.5-5.1,4.9
	C735.6,813.9,733.6,812,732.2,809.7 M685.2,780.5c-1.1,3-2.5,5.8-4.2,8.5c-1.6,2.8-3.4,5.6-5.4,8.2c-3.7,4.9-34.8,8.9-29.3,4.4
	c0.7-0.6,1.4-1.1,2.2-1.5c8.8-3.9,17.5-6.8,24.9-12.3c0.3,0.2,4.2-2.9,1.5-5.7c-4.1,0.3-4.6,0.5-6.1-0.1c-1.5-0.5-2.8-1.4-3.8-2.6
	c-0.8-0.9-1.2-2.1-1.2-3.2c-0.1-2.4,2.5-4.3,3.6-8.5c1.6-6.1,3.1-6.8,6.5-7.6c1.7-0.3,3.5-0.1,5.1,0.6c2.7,1.1,4.9,2.2,6.3,6.3
	c0.2,0.6,0.4,1.2,0.5,1.9c6.2-0.3,11.8-4,14.5-9.6c1-2,3.3-2.8,5.3-1.9c0.1,0,0.2,0.1,0.3,0.1c4,2.5,7.8-0.2,11.5-5.1
	c2-2.6,2.7-1,2,1.3c-2.2,8.3-6.9,13.3-13.9,12c-1.7-0.3-3.5-1.7-6,1.2c-4.4,4.9-6.3,10.9-14.1,12.7
	C685.3,779.9,685.2,780.2,685.2,780.5 M780.7,281.9l4.1,12.1h13.1l-10.6,7.5l4.1,12.1l-10.6-7.5l-10.6,7.5l4.1-12.1l-10.6-7.5h13.1
	L780.7,281.9z M812.9,345.2c-10.3,22.6-33.7,38.5-60.8,38.5c-36.7,0-66.5-28.9-66.5-64.6c0-26.4,16.3-49.1,39.6-59.1
	c-10.7,11-16.6,25.8-16.7,41.1c0,33.3,27.8,60.3,62.1,60.3C786.3,361.5,801.3,355.7,812.9,345.2 M583,326.8h7.8v323.5H583V326.8z
	 M712.6,581.2c15.6-5.5,28.6-10.7,44.3-16.2c8.7,2.5,10.8,1.6,6.9,3.9c-15.9,5.5-31.3,11.7-47.2,17.2
	C710.2,583.8,707.6,582.7,712.6,581.2 M671.7,535.2c3.8-3,7.7-6,11.5-9.1c2.7-0.2,4.2,0.1,3.4,1.1l-11.6,9.1
	C673,536.3,671.1,536.2,671.7,535.2 M794.7,632.3c-0.4,5.8-0.1,9.3-0.5,15.2c0,3.8-2.5,7.2-6.1,8.4c-21.4,9.5-51.8,12.8-62.6,11.6
	c-23.6-4.1-22.3-19.3-14.8-32.2c1.6,12.6,4.4,25.6,26.7,24.2c12-1.2,23.9-3.4,35.6-6.5c10.8-3.5,12.5-7.2,14-15.7
	C787.3,634.6,793,632.2,794.7,632.3 M771.8,586.8c4.9-0.1,9.5,2.7,11.5,7.2c6.2,8.5,6.3,18.4-2.5,27.8c-29.6,22.3-64,19-81.3,3
	c-7.9,20.7-27.4,17.6-40.8,27.9c-12.8,9.8-30.3,24.1-42.2,8.9c-1.6-2.1-1.3-2.4-4.1-2.2c-4.5,0.4-9.1,1.3-13.6,2
	c-6.8,1.4-6.6,0.1-0.8-2.7c15.5-9,30.1-19.4,43.8-31.1c6.9-5.8,0.3-5.7-7.3-4.7c-7,1-12.5-9.3-7.6-17.3c8.1-13.1,27.2-6.1,28.9,11.3
	c0,16.5-22.2,27-36.5,38.5c9.3,12.2,24.1-5.7,37.8-13c11.9-7.9,31.9-8.8,31-21.1c-1-14.1-18-37.8-28.7-57.7c-4-9.3,1-16.5,9.6-18.1
	c25.7-4.6,48.4-7,74.5-11.2c8.8-1.5,17.2,5,13.2,12.6c-2.1,5.4-4.1,6.5-6.8,10.5c-4.7,5.9-10.7,6.4-7.7-2.5c1.6-3.2,3.5-9.3-0.4-9.1
	c-21.8,2.9-41.6,6.1-63.4,9c-6,0.7-8.2,3.3-4.1,10.7c12.6,22.4,23.9,44.2,34.3,54.4c17.9,15,60.7,8,70.5-12.2c0.5-1.1,0-2.1-0.9-1.4
	c-2.6,1.8-5.7,2.8-8.9,2.9c-6.1-0.3-8.7-3.7-8.5-8.5C760.7,595.6,765.4,587.1,771.8,586.8 M640.6,571c1.8,1.4,3.4,3,4.9,4.7
	c-1.2,2-2.8,3.6-4.9,4.7c-2-1.1-3.7-2.8-4.9-4.7C637.5,574.3,639.1,572.7,640.6,571 M671.8,611c1.7,0,2.9,2,2.7,4.4
	c0,0.5-0.1,1-0.3,1.5c0.4,0.4,0.8,0.9,1.2,1.3c0.4,1.4-0.2,2-1.1,2.1c-0.8,0-1.3,0.1-2,0.1l-0.5,0.8c-1.8,2.4-4,4.4-4.8,4.4
	c-0.8,0,0-2,1.8-4.4c0.4-0.6,0.9-1.1,1.3-1.6c-1.3-1-1.9-2.5-1.6-4.1C668.6,613,670.1,611,671.8,611 M686.3,658.8
	c-1.7,0-3-2-2.9-4.4c0-0.5,0.1-1,0.2-1.5c-0.4-0.4-0.9-0.9-1.3-1.3c-0.5-1.4,0.1-2,1-2.1c0.8,0,1.3-0.1,2-0.1l0.5-0.8
	c1.7-2.4,3.7-4.4,4.6-4.4s0.1,2-1.5,4.4c-0.4,0.5-0.8,1.1-1.2,1.6c1.3,0.9,2,2.5,1.9,4.1C689.4,656.8,688,658.8,686.3,658.8
	 M740.3,645c2.1-2.8,4.6-5.2,7.4-7.2c1.8,2.1,3.8,4.1,5.9,6l-0.1-0.1c2.1-2.8,4.6-5.2,7.4-7.2c2.3,2.6,4.8,5,7.5,7.2
	c-2,2.9-4.5,5.4-7.5,7.2c-2.4-1.4-4.5-3.2-6.2-5.4c-1.9,2.7-4.3,5-7.1,6.8C744.7,650.5,742.1,648,740.3,645 M723.2,615.2
	c10.4-3.6,15.6-5.7,26-9.3c5.8,1.7,7.1,1,4.6,2.6c-10.5,3.7-17.4,6.4-27.9,10C721.5,616.8,719.7,616.1,723.2,615.2 M738,587.4
	c2.6,2.1,4.9,4.4,7.1,6.9c-1.7,2.9-4.1,5.3-7.1,6.9c-2.9-1.6-5.4-4-7.1-6.9C733.5,592.1,735.9,589.8,738,587.4 M704.5,568.4
	c0.8,2.7,10.7,3.2,13.2,0.8c2.5-2.3-1-5.1,1.3-5.7c2.3-0.6,4.6-3.1,2.4-4.9c-2.2-1.8-6.5-0.8-7.5,1.6c-1,2.4,0.3,3.9-2.3,4.4
	C708.9,565.2,703.7,565.7,704.5,568.4 M698.2,524.8l21.2-1.6c3.3,2,5,3.5,3.1,4l-21.4,1.6C698.6,527.1,696.4,525.5,698.2,524.8"/>
<path class="st2" d="M610.7,568.5v-5.9h-1v-0.9h1v-0.3c-0.1-0.9,0.2-1.7,0.8-2.4c0.4-0.4,1-0.6,1.7-0.6c0.4,0,0.7,0.1,1,0.2l-0.2,1
	c-0.2-0.1-0.5-0.2-0.8-0.2c-1.1,0-1.3,0.9-1.3,2v0.4h1.6v0.9h-1.6v5.9L610.7,568.5z"/>
<path class="st2" d="M614.7,563.8c0-0.8,0-1.5,0-2.1h1.1v1.3h0.1c0.2-0.9,1-1.5,1.9-1.5c0.1,0,0.2,0,0.4,0v1.2c-0.1,0-0.3,0-0.4,0
	c-0.9,0-1.6,0.7-1.7,1.6c0,0.2,0,0.4,0,0.6v3.6h-1.2L614.7,563.8z"/>
<path class="st2" d="M619.9,565.3c-0.1,1.2,0.8,2.2,2,2.4c0.1,0,0.2,0,0.4,0c0.6,0,1.3-0.1,1.9-0.3l0.2,0.9
	c-0.7,0.3-1.5,0.4-2.3,0.4c-1.7,0.1-3.2-1.2-3.4-3c0-0.2,0-0.3,0-0.5c0-2.1,1.2-3.7,3.2-3.7c2.2,0,2.8,2,2.8,3.2c0,0.2,0,0.4,0,0.6
	H619.9z M623.5,564.4c0.1-1-0.6-1.9-1.5-2c-0.1,0-0.1,0-0.2,0c-1.1,0.1-1.9,0.9-1.9,2H623.5z"/>
<path class="st2" d="M626.9,565.3c-0.1,1.2,0.8,2.3,2,2.4c0.1,0,0.2,0,0.3,0c0.6,0,1.3-0.1,1.9-0.3l0.2,0.9
	c-0.7,0.3-1.5,0.4-2.3,0.4c-1.7,0.1-3.2-1.2-3.3-3c0-0.2,0-0.3,0-0.5c0-2.1,1.2-3.7,3.2-3.7c2.2,0,2.8,2,2.8,3.2c0,0.2,0,0.4,0,0.6
	H626.9z M630.5,564.4c0.1-1-0.6-1.9-1.5-2c-0.1,0-0.1,0-0.2,0c-1.1,0.1-1.9,0.9-1.9,2H630.5z"/>
<path class="st2" d="M633.3,558.5h1.2v10h-1.2V558.5z"/>
<path class="st2" d="M642.7,565c0.2,1.8-1.2,3.4-3,3.6c-0.1,0-0.2,0-0.4,0c-1.8,0-3.2-1.4-3.3-3.2c0-0.1,0-0.2,0-0.3
	c-0.2-1.8,1.2-3.4,3-3.6c0.1,0,0.2,0,0.4,0c1.8,0,3.3,1.4,3.3,3.1C642.8,564.7,642.8,564.9,642.7,565z M637.3,565
	c0,1.5,0.9,2.6,2.1,2.6s2.1-1.1,2.1-2.6c0-1.1-0.6-2.6-2-2.6C638.1,562.4,637.3,563.8,637.3,565L637.3,565z"/>
<path class="st2" d="M650.2,561.7c0,0.5,0,1,0,1.9v4c0,1.6-0.3,2.5-1,3.1c-0.7,0.6-1.6,0.9-2.5,0.8c-0.8,0-1.6-0.2-2.3-0.6l0.3-1
	c0.6,0.4,1.3,0.5,2,0.5c1.3,0,2.2-0.7,2.2-2.4v-0.8l0,0c-0.5,0.7-1.3,1.2-2.2,1.1c-1.7-0.1-3-1.4-2.9-3.1c0-0.1,0-0.2,0-0.2
	c0-2.3,1.5-3.6,3.1-3.6c0.9-0.1,1.7,0.4,2.1,1.2l0,0l0.1-1L650.2,561.7z M648.9,564.4c0-0.2,0-0.4-0.1-0.6c-0.2-0.8-0.9-1.3-1.7-1.3
	c-1.2,0-2,1-2,2.6c0,1.3,0.7,2.5,2,2.5c0.8,0,1.5-0.5,1.7-1.3c0.1-0.2,0.1-0.4,0.1-0.7L648.9,564.4z"/>
<path class="st2" d="M658.3,565c0.2,1.8-1.2,3.4-3,3.6c-0.1,0-0.2,0-0.4,0c-1.8,0-3.3-1.4-3.3-3.2c0-0.1,0-0.2,0-0.3
	c-0.2-1.8,1.2-3.4,3-3.6c0.1,0,0.2,0,0.4,0c1.8,0,3.3,1.4,3.3,3.2C658.4,564.8,658.4,564.9,658.3,565z M652.9,565
	c0,1.5,0.9,2.6,2.1,2.6s2.1-1.1,2.1-2.6c0-1.1-0.6-2.6-2-2.6C653.7,562.4,652.9,563.8,652.9,565L652.9,565z"/>
<path class="st2" d="M660.3,561.7l1.3,3.8c0.2,0.6,0.4,1.2,0.5,1.7l0,0c0.2-0.6,0.4-1.1,0.6-1.7l1.3-3.8h1.3l-2.7,6.8h-1.2l-2.6-6.8
	H660.3z"/>
<path class="st2" d="M667.1,565.3c-0.1,1.2,0.8,2.3,2,2.4c0.1,0,0.2,0,0.4,0c0.6,0,1.3-0.1,1.9-0.3l0.2,0.9
	c-0.7,0.3-1.5,0.4-2.3,0.4c-1.7,0.1-3.2-1.2-3.4-3c0-0.2,0-0.3,0-0.5c0-2.1,1.2-3.7,3.2-3.7c2.2,0,2.8,2,2.8,3.2c0,0.2,0,0.4,0,0.6
	H667.1z M670.8,564.4c0.1-1-0.5-1.8-1.5-2c-0.1,0-0.2,0-0.2,0c-1.1,0.1-1.9,0.9-1.9,2H670.8z"/>
<path class="st2" d="M678.3,568.2c-0.6,0.3-1.3,0.4-2,0.4c-1.8,0.1-3.3-1.3-3.4-3.1c0-0.1,0-0.3,0-0.4c-0.1-1.9,1.4-3.5,3.3-3.6
	c0.1,0,0.2,0,0.4,0c0.6,0,1.2,0.1,1.7,0.4l-0.3,1c-0.4-0.2-0.9-0.3-1.4-0.3c-1.3,0-2.4,1-2.4,2.3c0,0.1,0,0.2,0,0.3
	c-0.1,1.3,0.8,2.4,2.1,2.5c0.1,0,0.2,0,0.2,0c0.5,0,1-0.1,1.5-0.3L678.3,568.2z"/>
<path class="st2" d="M681.5,559.7v2h1.8v0.9h-1.8v3.7c0,0.9,0.2,1.3,0.9,1.3c0.2,0,0.5,0,0.7-0.1l0.1,0.9c-0.4,0.1-0.7,0.2-1.1,0.2
	c-0.5,0-1-0.2-1.3-0.5c-0.4-0.5-0.5-1.1-0.5-1.8v-3.7h-1v-0.9h1v-1.6L681.5,559.7z"/>
<path class="st2" d="M690.7,565c0.2,1.8-1.2,3.4-3,3.6c-0.1,0-0.2,0-0.4,0c-1.8,0-3.3-1.4-3.3-3.2c0-0.1,0-0.2,0-0.3
	c-0.2-1.8,1.2-3.4,3-3.6c0.1,0,0.2,0,0.3,0c1.8,0,3.3,1.4,3.3,3.1C690.7,564.7,690.7,564.9,690.7,565z M685.3,565
	c0,1.5,0.9,2.6,2.1,2.6s2.1-1.1,2.1-2.6c0-1.1-0.6-2.6-2-2.6S685.3,563.8,685.3,565L685.3,565z"/>
<path class="st2" d="M692.3,563.8c0-0.8,0-1.5,0-2.1h1v1.3h0.1c0.2-0.9,1-1.5,1.9-1.5c0.1,0,0.2,0,0.4,0v1.2c-0.1,0-0.3,0-0.4,0
	c-0.9,0-1.6,0.7-1.7,1.6c0,0.2,0,0.4,0,0.6v3.6h-1.2V563.8z"/>
<path class="st2" d="M696.7,567.2c0.5,0.3,1.1,0.5,1.6,0.5c0.9,0,1.3-0.5,1.3-1s-0.4-0.9-1.3-1.2c-1.2-0.4-1.8-1.1-1.8-1.9
	c0-1.2,1-2.1,2.2-2c0.1,0,0.1,0,0.2,0c0.6,0,1.2,0.1,1.7,0.4l-0.3,0.9c-0.4-0.3-0.9-0.4-1.4-0.4c-0.7,0-1.1,0.4-1.1,0.9
	s0.4,0.8,1.3,1.2c1.2,0.5,1.8,1,1.8,2c0,1.2-0.9,2-2.5,2c-0.7,0-1.3-0.1-1.9-0.5L696.7,567.2z"/>
<path class="st2" d="M702,567.7c0-0.5,0.3-0.9,0.8-0.9c0,0,0,0,0.1,0c0.5,0,0.9,0.3,0.9,0.8c0,0.5-0.3,0.9-0.8,0.9
	C702.5,568.7,702,568.3,702,567.7C702,567.8,702,567.8,702,567.7z"/>
<path class="st2" d="M705.2,563.5c0-0.7,0-1.3-0.1-1.8h1.1l0.1,1.1l0,0c0.5-0.8,1.3-1.3,2.2-1.3c0.9,0,2.4,0.6,2.4,2.9v4.1h-1.2
	v-3.9c0-1.1-0.4-2-1.6-2c-0.8,0-1.4,0.5-1.7,1.3c-0.1,0.2-0.1,0.4-0.1,0.6v4.1h-1.2V563.5z"/>
<path class="st2" d="M713.7,565.3c-0.1,1.2,0.8,2.3,2,2.4c0.1,0,0.2,0,0.3,0c0.6,0,1.3-0.1,1.9-0.3l0.2,0.9
	c-0.7,0.3-1.5,0.4-2.3,0.4c-1.7,0.1-3.2-1.2-3.4-3c0-0.2,0-0.3,0-0.5c0-2.1,1.2-3.7,3.2-3.7c2.2,0,2.8,2,2.8,3.2c0,0.2,0,0.4,0,0.6
	H713.7z M717.3,564.4c0.1-1-0.6-1.9-1.5-2c-0.1,0-0.1,0-0.2,0c-1.1,0.1-1.9,0.9-1.9,2H717.3z"/>
<path class="st2" d="M721.6,559.7v2h1.8v0.9h-1.8v3.7c0,0.9,0.2,1.3,0.9,1.3c0.2,0,0.5,0,0.7-0.1l0.1,0.9c-0.4,0.1-0.7,0.2-1.1,0.2
	c-0.5,0-1-0.2-1.3-0.5c-0.4-0.5-0.5-1.1-0.5-1.8v-3.7h-1.1v-0.9h1v-1.6L721.6,559.7z"/>
</svg>
